<svg aria-hidden="true" style="position: absolute; width: 0; height: 0; overflow: hidden;" version="1.1" xmlns="http://www.w3.org/2000/svg" xmlns:xlink="http://www.w3.org/1999/xlink">
<defs>
<symbol id="phone" viewBox="0 0 20 32">
<path d="M17 0h-14c-1.654 0-3 1.346-3 3v26c0 1.654 1.346 3 3 3h14c1.654 0 3-1.346 3-3v-26c0-1.654-1.346-3-3-3zM3 2h14c0.552 0 1 0.448 1 1v0 21h-16v-21c0-0.552 0.448-1 1-1v0zM17 30h-14c-0.552 0-1-0.448-1-1v0-3h16v3c0 0.552-0.448 1-1 1v0z"></path>
<path d="M4.708 27.478c0.18 0.163 0.293 0.399 0.293 0.66s-0.113 0.497-0.292 0.659l-0.001 0.001c-0.186 0.17-0.435 0.275-0.708 0.275s-0.522-0.104-0.709-0.275l0.001 0.001c-0.18-0.163-0.293-0.399-0.293-0.66s0.113-0.497 0.292-0.659l0.001-0.001c0.186-0.17 0.435-0.275 0.708-0.275s0.522 0.104 0.709 0.275l-0.001-0.001z"></path>
</symbol>
<symbol id="level" viewBox="0 0 129 129">
<g xmlns="http://www.w3.org/2000/svg" transform="matrix(1,0,0,1,-473,-678)">

<g id="waterpass-ruler" transform="matrix(1,0,0,1,473.126,678.333)">
<rect height="128" style="fill:none;" width="128" x="0" y="0"/>
<g>
<g transform="matrix(0.613058,0.613058,-0.613058,0.613058,-9525.71,-10028.7)">
<rect height="145.508" style="fill:rgb(244,187,49);" width="11.901" x="16067.3" y="337.518"/>
</g>
<g transform="matrix(1,0,0,1,-6187.62,-3300)">
<path d="M6275.72,3307.33C6275.98,3307.42 6276.22,3307.57 6276.43,3307.78L6298.67,3330.02C6299.45,3330.8 6299.45,3332.07 6298.67,3332.85C6297.89,3333.63 6296.62,3333.63 6295.84,3332.85L6273.6,3310.61C6273.4,3310.4 6273.24,3310.16 6273.15,3309.9L6268.78,3314.27C6269.04,3314.36 6269.29,3314.51 6269.5,3314.72L6276.49,3321.71C6277.27,3322.49 6277.27,3323.76 6276.49,3324.54C6275.7,3325.32 6274.44,3325.32 6273.66,3324.54L6266.67,3317.55C6266.46,3317.34 6266.31,3317.1 6266.22,3316.83L6262.35,3320.7C6262.62,3320.78 6262.86,3320.94 6263.07,3321.15L6267.1,3325.18C6267.88,3325.96 6267.88,3327.23 6267.1,3328.01C6266.32,3328.79 6265.05,3328.79 6264.27,3328.01L6260.24,3323.97C6260.03,3323.77 6259.88,3323.52 6259.79,3323.26L6256.27,3326.78C6256.53,3326.87 6256.77,3327.02 6256.98,3327.23L6263.97,3334.22C6264.75,3335 6264.75,3336.27 6263.97,3337.05C6263.19,3337.83 6261.92,3337.83 6261.14,3337.05L6254.15,3330.06C6253.94,3329.85 6253.79,3329.61 6253.7,3329.35L6216.81,3366.24C6217.08,3366.33 6217.32,3366.48 6217.53,3366.69L6221.56,3370.72C6222.34,3371.5 6222.34,3372.77 6221.56,3373.55C6220.78,3374.33 6219.51,3374.33 6218.73,3373.55L6214.7,3369.51C6214.49,3369.31 6214.34,3369.06 6214.25,3368.8L6209.88,3373.17C6210.14,3373.26 6210.38,3373.41 6210.59,3373.62L6217.58,3380.61C6218.36,3381.39 6218.36,3382.66 6217.58,3383.44C6216.8,3384.22 6215.53,3384.22 6214.75,3383.44L6207.76,3376.45C6207.55,3376.24 6207.4,3376 6207.31,3375.74L6203.45,3379.6C6203.71,3379.69 6203.95,3379.84 6204.16,3380.05L6208.2,3384.08C6208.98,3384.86 6208.98,3386.13 6208.2,3386.91C6207.42,3387.69 6206.15,3387.69 6205.37,3386.91L6201.34,3382.88C6201.13,3382.67 6200.97,3382.43 6200.89,3382.16L6197.36,3385.69C6197.62,3385.78 6197.87,3385.93 6198.08,3386.14L6221.04,3409.1C6221.82,3409.88 6221.82,3411.15 6221.04,3411.93C6220.26,3412.71 6218.99,3412.71 6218.21,3411.93L6195.25,3388.97C6195.04,3388.76 6194.89,3388.51 6194.8,3388.25L6190.73,3392.32L6223.3,3424.89L6312.51,3335.69L6279.93,3303.12L6275.72,3307.33Z" style="fill:rgb(244,187,49);"/>
</g>
<g transform="matrix(0.13078,0.13078,-0.613058,0.613058,-1796.66,-2299.7)">
<rect height="145.508" style="fill:rgb(247,204,101);" width="53.13" x="16026.1" y="337.518"/>
</g>
<g transform="matrix(1,0,0,1,-6187.62,-3300)">
<path d="M6312.51,3335.69L6303.89,3327.08L6214.69,3416.28L6223.3,3424.89L6312.51,3335.69Z" style="fill:rgb(51,51,51);"/>
</g>
<g transform="matrix(1,0,0,1,-6187.62,-3300)">
<path d="M6307.95,3331.14L6303.89,3327.08L6214.69,3416.28L6218.75,3420.34L6307.95,3331.14Z" style="fill:rgb(102,102,102);"/>
</g>
<g transform="matrix(1,0,0,1,-6187.62,-3300)">
<path d="M6297.98,3321.16C6297.98,3321.16 6208.78,3410.37 6208.78,3410.37L6216.01,3417.6C6216.01,3417.6 6305.21,3328.39 6305.21,3328.39C6305.21,3328.39 6297.98,3321.16 6297.98,3321.16Z" style="fill:rgb(183,140,37);"/>
</g>
<g transform="matrix(1,0,0,1,-6187.62,-3300)">
<path d="M6255.3,3346.69C6256.15,3345.84 6256.62,3344.69 6256.62,3343.48C6256.62,3342.28 6256.15,3341.13 6255.3,3340.28C6252.55,3337.53 6249.03,3334.02 6249.03,3334.02L6221.63,3361.42C6221.63,3361.42 6225.14,3364.94 6227.89,3367.68C6228.74,3368.53 6229.89,3369.01 6231.1,3369.01C6232.3,3369.01 6233.45,3368.53 6234.3,3367.68C6239.58,3362.41 6250.02,3351.96 6255.3,3346.69Z" style="fill:rgb(74,155,245);"/>
</g>
<g transform="matrix(1,0,0,1,-6187.62,-3300)">
<path d="M6253.73,3338.71L6249.03,3334.02L6221.63,3361.42C6221.63,3361.42 6225.14,3364.94 6227.89,3367.68C6227.89,3367.68 6226.32,3366.12 6226.32,3366.12L6253.73,3338.71Z" style="fill:rgb(119,180,248);"/>
</g>
<g transform="matrix(1,0,0,1,-6187.62,-3300)">
<path d="M6197.36,3385.69L6194.8,3388.25C6194.89,3388.51 6195.04,3388.76 6195.25,3388.97L6218.21,3411.93C6218.99,3412.71 6220.26,3412.71 6221.04,3411.93C6221.82,3411.15 6221.82,3409.88 6221.04,3409.1L6198.08,3386.14C6197.87,3385.93 6197.62,3385.78 6197.36,3385.69Z" style="fill:rgb(137,105,28);"/>
</g>
<g transform="matrix(1,0,0,1,-6187.62,-3300)">
<path d="M6203.45,3379.6L6200.89,3382.16C6200.97,3382.43 6201.13,3382.67 6201.34,3382.88L6205.37,3386.91C6206.15,3387.69 6207.42,3387.69 6208.2,3386.91C6208.98,3386.13 6208.98,3384.86 6208.2,3384.08L6204.16,3380.05C6203.95,3379.84 6203.71,3379.69 6203.45,3379.6Z" style="fill:rgb(137,105,28);"/>
</g>
<g transform="matrix(1,0,0,1,-6187.62,-3300)">
<path d="M6209.88,3373.17L6207.31,3375.74C6207.4,3376 6207.55,3376.24 6207.76,3376.45L6214.75,3383.44C6215.53,3384.22 6216.8,3384.22 6217.58,3383.44C6218.36,3382.66 6218.36,3381.39 6217.58,3380.61L6210.59,3373.62C6210.38,3373.41 6210.14,3373.26 6209.88,3373.17Z" style="fill:rgb(137,105,28);"/>
</g>
<g transform="matrix(1,0,0,1,-6187.62,-3300)">
<path d="M6216.81,3366.24L6214.25,3368.8C6214.34,3369.06 6214.49,3369.31 6214.7,3369.51L6218.73,3373.55C6219.51,3374.33 6220.78,3374.33 6221.56,3373.55C6222.34,3372.77 6222.34,3371.5 6221.56,3370.72L6217.53,3366.69C6217.32,3366.48 6217.08,3366.33 6216.81,3366.24Z" style="fill:rgb(137,105,28);"/>
</g>
<g transform="matrix(1,0,0,1,-6187.62,-3300)">
<path d="M6256.27,3326.78L6253.7,3329.35C6253.79,3329.61 6253.94,3329.85 6254.15,3330.06L6261.14,3337.05C6261.92,3337.83 6263.19,3337.83 6263.97,3337.05C6264.75,3336.27 6264.75,3335 6263.97,3334.22L6256.98,3327.23C6256.77,3327.02 6256.53,3326.87 6256.27,3326.78Z" style="fill:rgb(137,105,28);"/>

</g>
<g transform="matrix(1,0,0,1,-6187.62,-3300)">
<path d="M6275.72,3307.33L6273.15,3309.9C6273.24,3310.16 6273.4,3310.4 6273.6,3310.61L6295.84,3332.85C6296.62,3333.63 6297.89,3333.63 6298.67,3332.85C6299.45,3332.07 6299.45,3330.8 6298.67,3330.02L6276.43,3307.78C6276.22,3307.57 6275.98,3307.42 6275.72,3307.33Z" style="fill:rgb(137,105,28);"/>
</g>
<g transform="matrix(1,0,0,1,-6187.62,-3300)">
<path d="M6262.35,3320.7L6259.79,3323.26C6259.88,3323.52 6260.03,3323.77 6260.24,3323.97L6264.27,3328.01C6265.05,3328.79 6266.32,3328.79 6267.1,3328.01C6267.88,3327.23 6267.88,3325.96 6267.1,3325.18L6263.07,3321.15C6262.86,3320.94 6262.62,3320.78 6262.35,3320.7Z" style="fill:rgb(137,105,28);"/>
</g>
<g transform="matrix(1,0,0,1,-6187.62,-3300)">
<path d="M6268.78,3314.27L6266.22,3316.83C6266.31,3317.1 6266.46,3317.34 6266.67,3317.55L6273.66,3324.54C6274.44,3325.32 6275.7,3325.32 6276.49,3324.54C6277.27,3323.76 6277.27,3322.49 6276.49,3321.71L6269.5,3314.72C6269.29,3314.51 6269.04,3314.36 6268.78,3314.27Z" style="fill:rgb(137,105,28);"/>
</g>
<g transform="matrix(1,0,0,1,-6187.62,-3300)">
<path d="M6231.85,3351.2L6229.03,3354.03C6229.03,3354.03 6237.71,3362.71 6237.71,3362.71C6238.01,3363.01 6238.37,3363.19 6238.76,3363.23L6241.06,3360.93C6241.02,3360.54 6240.84,3360.18 6240.54,3359.89L6231.85,3351.2Z" style="fill:rgb(55,116,184);"/>
</g>
<g transform="matrix(1,0,0,1,-6187.62,-3300)">
<path d="M6241.64,3341.41L6238.81,3344.24L6248.09,3353.52L6248.32,3353.67L6251.07,3350.92L6250.92,3350.69L6241.64,3341.41Z" style="fill:rgb(55,116,184);"/>
</g>
<g transform="matrix(2.08678,0,0,2.08678,-27714.6,-5222.82)">
<circle cx="13310.7" cy="2523.46" r="1.294" style="fill:rgb(187,218,252);"/>
</g>
</g>
</g>
</g>
</symbol>

<symbol id="screwdriver" viewBox="0 -0.5 129 129">
<g xmlns="http://www.w3.org/2000/svg" transform="matrix(1,0,0,1,-473,0)">

<g id="screwdriver-tools-" transform="matrix(1,0,0,1,473.126,0)">

<rect height="128" style="fill:none;" width="128" x="0" y="0"/>

<g>

<g transform="matrix(1,0,0,1,-2661.14,-2621.67)">

<path d="M2708.54,2699.45L2662.47,2745.52C2661.68,2746.3 2661.68,2747.57 2662.47,2748.35C2663.25,2749.13 2664.51,2749.13 2665.29,2748.35L2711.37,2702.27C2712.15,2701.49 2712.15,2700.23 2711.37,2699.45C2710.59,2698.66 2709.32,2698.66 2708.54,2699.45Z" style="fill:rgb(128,128,128);"/>

</g>

<g transform="matrix(1,0,0,1,-2661.14,-2621.67)">

<path d="M2710.64,2698.98C2710.9,2699.69 2710.74,2700.52 2710.18,2701.08L2664.1,2747.16C2663.54,2747.72 2662.71,2747.88 2662,2747.62C2662.1,2747.89 2662.25,2748.13 2662.47,2748.35C2663.25,2749.13 2664.51,2749.13 2665.29,2748.35L2711.37,2702.27C2712.15,2701.49 2712.15,2700.23 2711.37,2699.45C2711.15,2699.23 2710.91,2699.08 2710.64,2698.98Z" style="fill:rgb(96,96,96);"/>

</g>

<g transform="matrix(1,0,0,1,-2661.14,-2621.67)">

<path d="M2784.57,2642.91C2785.52,2641.96 2786.05,2640.68 2786.05,2639.34C2786.05,2638 2785.52,2636.72 2784.57,2635.77C2781.76,2632.96 2777.86,2629.05 2775.04,2626.24C2774.1,2625.29 2772.81,2624.76 2771.47,2624.76C2770.14,2624.76 2768.85,2625.29 2767.91,2626.24C2757.3,2636.84 2726.21,2667.94 2717.75,2676.39C2716.57,2677.58 2716.57,2679.5 2717.75,2680.68C2720.95,2683.88 2726.93,2689.86 2730.13,2693.06C2731.32,2694.24 2733.23,2694.24 2734.42,2693.06C2742.87,2684.61 2773.97,2653.51 2784.57,2642.91Z" style="fill:rgb(244,187,49);"/>

</g>

<g transform="matrix(1,0,0,1,-2661.14,-2621.67)">

<path d="M2775.04,2626.24L2779.49,2630.68C2780.43,2631.63 2780.96,2632.91 2780.96,2634.25C2780.96,2635.59 2780.43,2636.88 2779.49,2637.82C2768.88,2648.42 2737.79,2679.52 2729.33,2687.97C2728.15,2689.16 2726.23,2689.16 2725.05,2687.97L2730.13,2693.06C2731.32,2694.24 2733.23,2694.24 2734.42,2693.06C2742.87,2684.61 2773.97,2653.51 2784.57,2642.91C2785.52,2641.96 2786.05,2640.68 2786.05,2639.34C2786.05,2638 2785.52,2636.72 2784.57,2635.77L2775.04,2626.24Z" style="fill:rgb(181,131,10);"/>

</g>

<g transform="matrix(1,0,0,1,-2661.14,-2621.67)">

<path d="M2718.78,2681.7L2711.33,2689.15L2721.66,2699.49L2729.11,2692.04L2718.78,2681.7Z" style="fill:rgb(102,102,102);"/>

</g>

<g transform="matrix(1,0,0,1,-2661.14,-2621.67)">

<path d="M2724.35,2687.26L2716.79,2694.61L2721.66,2699.49L2729.11,2692.04L2724.35,2687.26Z" style="fill:rgb(51,51,51);"/>

</g>

<g transform="matrix(1,0,0,1,-2661.14,-2621.67)">

<path d="M2721.12,2706.36C2722.1,2705.38 2722.65,2704.04 2722.65,2702.65C2722.65,2701.26 2722.1,2699.93 2721.12,2698.94C2718.36,2696.19 2714.62,2692.45 2711.87,2689.7C2710.89,2688.71 2709.55,2688.16 2708.16,2688.16C2706.77,2688.16 2705.43,2688.71 2704.45,2689.7C2702.58,2691.56 2700.71,2693.43 2700.71,2693.43L2717.38,2710.1C2717.38,2710.1 2719.25,2708.23 2721.12,2706.36Z" style="fill:rgb(244,118,50);"/>

</g>

<g transform="matrix(1,0,0,1,-2661.14,-2621.67)">

<path d="M2721.12,2706.36C2722.1,2705.38 2722.65,2704.04 2722.65,2702.65C2722.65,2701.26 2722.1,2699.93 2721.12,2698.94C2719.82,2697.65 2718.31,2696.13 2716.78,2694.61L2709.3,2702.03L2717.38,2710.1C2717.38,2710.1 2719.25,2708.23 2721.12,2706.36Z" style="fill:rgb(183,88,37);"/>

</g>

<g transform="matrix(0.893588,0.893588,-1.13866,1.13866,-1361.83,-1289.84)">

<path d="M1555.34,-16.94L1555.34,22.189" style="fill:none;"/>

</g>

<g transform="matrix(1,0,0,1,-2661.14,-2621.67)">

<path d="M2719.73,2682.65L2722.45,2685.38L2722.76,2685.18L2760.18,2647.75C2760.96,2646.97 2760.96,2645.7 2760.18,2644.92C2759.4,2644.14 2758.14,2644.14 2757.36,2644.92L2719.93,2682.35L2719.73,2682.65Z" style="fill:rgb(181,131,10);"/>

</g>

<g transform="matrix(1,0,0,1,-2661.14,-2621.67)">

<path d="M2775.64,2626.84L2775.05,2627.23L2763.98,2638.3C2763.2,2639.08 2763.2,2640.34 2763.98,2641.12C2764.76,2641.91 2766.03,2641.91 2766.81,2641.12L2777.88,2630.05L2778.27,2629.47L2775.64,2626.84Z" style="fill:rgb(181,131,10);"/>

</g>

</g>

</g>

</g></symbol>

<symbol id="saw" viewBox="-0.5 0 129 129">
<g xmlns="http://www.w3.org/2000/svg" transform="matrix(1,0,0,1,0,-169)">

<g id="saw" transform="matrix(1,0,0,1,0,169.583)">

<rect height="128" style="fill:none;" width="128" x="0" y="0"/>

<g>

<g transform="matrix(1,0,0,1,-2188.01,-2791.25)">

<path d="M2281.28,2854.16L2268.22,2820.78C2268.22,2820.78 2207.17,2881.83 2193.19,2895.81C2191.63,2897.37 2191.63,2899.9 2193.19,2901.47C2196.52,2904.79 2201.58,2909.85 2201.58,2909.85L2205.38,2904.73L2210.38,2903.71L2212.46,2899.78L2217.45,2898.77L2219.53,2894.84L2224.52,2893.83L2226.6,2889.9L2231.59,2888.88L2233.68,2884.96L2238.67,2883.94L2240.75,2880.01L2245.74,2879L2247.82,2875.07L2252.81,2874.05L2254.89,2870.13L2259.89,2869.11L2261.97,2865.19L2266.96,2864.17L2269.04,2860.24L2274.03,2859.23L2281.28,2854.16ZM2204.8,2890.91C2201.97,2890.91 2199.67,2893.2 2199.67,2896.03C2199.67,2898.87 2201.97,2901.16 2204.8,2901.16C2207.63,2901.16 2209.93,2898.87 2209.93,2896.03C2209.93,2893.2 2207.63,2890.91 2204.8,2890.91Z" style="fill:rgb(158,158,158);"/>

</g>

<g transform="matrix(1,0,0,1,-2188.01,-2791.25)">

<path d="M2265.92,2823.08L2276.02,2848.91L2268.77,2853.97L2263.78,2854.99L2261.7,2858.91L2256.71,2859.93L2254.63,2863.86L2249.64,2864.87L2247.56,2868.8L2242.57,2869.82L2240.48,2873.74L2235.49,2874.76L2233.41,2878.68L2228.42,2879.7L2226.34,2883.63L2221.35,2884.64L2219.26,2888.57L2214.27,2889.59L2212.19,2893.51L2209.53,2894.05C2209.79,2894.66 2209.93,2895.33 2209.93,2896.03C2209.93,2898.87 2207.63,2901.16 2204.8,2901.16C2203.22,2901.16 2201.8,2900.45 2200.86,2899.32L2200.13,2899.47L2196.33,2904.6L2201.58,2909.85L2205.38,2904.73L2210.38,2903.71L2212.46,2899.78L2217.45,2898.77L2219.53,2894.84L2224.52,2893.83L2226.6,2889.9L2231.59,2888.88L2233.68,2884.96L2238.67,2883.94L2240.75,2880.01L2245.74,2879L2247.82,2875.07L2252.81,2874.05L2254.89,2870.13L2259.89,2869.11L2261.97,2865.19L2266.96,2864.17L2269.04,2860.24L2274.03,2859.23L2281.28,2854.16L2268.22,2820.78L2265.92,2823.08Z" style="fill:rgb(118,118,118);"/>

</g>

<g transform="matrix(1,0,0,1,-2188.01,-2791.25)">

<path d="M2270.89,2827.6L2268.22,2820.78C2268.22,2820.78 2207.17,2881.83 2193.19,2895.81C2191.63,2897.37 2191.63,2899.9 2193.19,2901.47L2197.94,2906.21C2196.38,2904.65 2196.38,2902.11 2197.94,2900.55L2200.2,2898.29C2199.86,2897.61 2199.67,2896.85 2199.67,2896.03C2199.67,2893.2 2201.97,2890.91 2204.8,2890.91C2205.61,2890.91 2206.38,2891.09 2207.06,2891.43L2270.89,2827.6Z" style="fill:rgb(182,182,182);"/>

</g>

<g transform="matrix(1,0,0,1,-2188.01,-2791.25)">

<path d="M2311.97,2833.54C2312.4,2833.22 2312.68,2832.73 2312.76,2832.2C2312.83,2831.67 2312.68,2831.13 2312.35,2830.7C2311.39,2829.48 2310.1,2827.83 2309.24,2826.72C2308.68,2826.01 2307.71,2825.76 2306.87,2826.12C2305.82,2826.57 2304.38,2827.18 2303.34,2827.63C2302.53,2827.98 2301.59,2827.75 2301.02,2827.08C2298.83,2824.47 2293.47,2818.08 2291.2,2815.37C2290.59,2814.65 2290.58,2813.6 2291.16,2812.86C2291.93,2811.86 2293.01,2810.48 2293.78,2809.5C2294.34,2808.78 2294.34,2807.77 2293.78,2807.05C2292.77,2805.74 2291.16,2803.66 2290.01,2802.18C2289.66,2801.72 2289.13,2801.44 2288.56,2801.4C2287.99,2801.37 2287.42,2801.58 2287.02,2801.99C2282.59,2806.41 2270.22,2818.78 2265.59,2823.41C2264.5,2824.5 2264.14,2826.12 2264.65,2827.57C2265.88,2831.05 2268.14,2837.48 2269.32,2840.84C2269.79,2842.17 2270.94,2843.16 2272.33,2843.43C2278.14,2844.57 2293.27,2847.54 2293.27,2847.54C2293.27,2847.54 2307.14,2837.15 2311.97,2833.54ZM2297.9,2834.68L2282.3,2817.06C2282.3,2817.06 2278.69,2821.44 2277.03,2823.45C2276.54,2824.05 2276.44,2824.89 2276.77,2825.59C2278.14,2828.44 2281.58,2835.6 2281.58,2835.6C2281.58,2835.6 2289.35,2837.33 2291.95,2837.91C2292.49,2838.03 2293.04,2837.92 2293.5,2837.62C2294.9,2836.68 2297.9,2834.68 2297.9,2834.68Z" style="fill:rgb(244,49,49);"/>

</g>

<g transform="matrix(1,0,0,1,-2188.01,-2791.25)">

<path d="M2308.08,2826L2309.64,2828C2309.97,2828.42 2310.12,2828.96 2310.05,2829.49C2309.98,2830.03 2309.7,2830.51 2309.26,2830.83C2304.43,2834.45 2290.56,2844.83 2290.56,2844.83C2290.56,2844.83 2275.44,2841.86 2269.62,2840.72C2269.49,2840.7 2269.37,2840.67 2269.25,2840.63L2269.32,2840.84C2269.79,2842.17 2270.94,2843.16 2272.33,2843.43C2278.14,2844.57 2293.27,2847.54 2293.27,2847.54C2293.27,2847.54 2307.14,2837.15 2311.97,2833.54C2312.4,2833.22 2312.68,2832.73 2312.76,2832.2C2312.83,2831.67 2312.68,2831.13 2312.35,2830.7C2311.39,2829.48 2310.1,2827.83 2309.24,2826.72C2308.94,2826.35 2308.53,2826.1 2308.08,2826ZM2282.16,2817.24L2279.6,2814.36C2279.6,2814.36 2275.98,2818.74 2274.33,2820.74C2273.83,2821.35 2273.73,2822.18 2274.07,2822.88C2275.43,2825.74 2280.45,2833.24 2280.45,2833.24L2276.77,2825.59C2276.44,2824.89 2276.54,2824.05 2277.03,2823.45L2282.16,2817.24ZM2288.83,2801.44L2291.07,2804.34C2291.63,2805.06 2291.63,2806.07 2291.07,2806.79C2290.3,2807.78 2289.23,2809.15 2288.45,2810.15C2287.87,2810.89 2287.89,2811.94 2288.49,2812.66C2290.76,2815.37 2296.13,2821.76 2298.31,2824.37C2298.57,2824.68 2298.91,2824.89 2299.28,2825L2291.2,2815.37C2290.59,2814.65 2290.58,2813.6 2291.16,2812.86C2291.93,2811.86 2293.01,2810.48 2293.78,2809.5C2294.34,2808.78 2294.34,2807.77 2293.78,2807.05C2292.77,2805.74 2291.16,2803.66 2290.01,2802.18C2289.72,2801.79 2289.3,2801.53 2288.83,2801.44Z" style="fill:rgb(183,37,37);"/>

</g>

<g transform="matrix(1,0,0,1,-2188.01,-2791.25)">

<path d="M2272.31,2843.43L2267.85,2830.77C2267.34,2829.32 2267.71,2827.7 2268.8,2826.62C2273.43,2821.98 2285.79,2809.62 2290.22,2805.19C2290.63,2804.78 2291.19,2804.57 2291.76,2804.61C2291.81,2804.61 2291.86,2804.62 2291.91,2804.62L2290.01,2802.18C2289.66,2801.72 2289.13,2801.44 2288.56,2801.4C2287.99,2801.37 2287.42,2801.58 2287.02,2801.99C2282.59,2806.41 2270.22,2818.78 2265.59,2823.41C2264.5,2824.5 2264.14,2826.12 2264.65,2827.57C2265.88,2831.05 2268.14,2837.48 2269.32,2840.84C2269.79,2842.17 2270.93,2843.15 2272.31,2843.43Z" style="fill:rgb(247,101,101);"/>

</g>

</g>

</g>

</g></symbol>

<symbol id="corner" viewBox="0 0 129 129">
<g xmlns="http://www.w3.org/2000/svg" transform="matrix(1,0,0,1,-157,-508)">

<g id="ruler" transform="matrix(1,0,0,1,157.709,508.75)">

<rect height="128" style="fill:none;" width="128" x="0" y="0"/>

<g>

<g transform="matrix(1,0,0,1,-5872.2,-3130.42)">

<path d="M5980.76,3145.3L5968.56,3133.1L5890.81,3210.85L5920.44,3205.62L5980.76,3145.3Z" style="fill:rgb(182,182,182);"/>

</g>

<g transform="matrix(1,0,0,1,-5872.2,-3130.42)">

<path d="M5968.56,3133.1L5975.42,3139.96L5902.97,3212.4L5920.44,3205.62L5980.76,3145.3L5968.56,3133.1Z" style="fill:rgb(136,136,136);"/>

</g>

<g>

<g transform="matrix(0.626408,0.626408,-0.626408,0.626408,-4168.1,-6853.09)">

<path d="M8895.67,2083.71L8895.67,2079.2L8885.93,2079.2C8884.68,2079.2 8883.67,2080.21 8883.67,2081.45C8883.67,2082.7 8884.68,2083.71 8885.93,2083.71L8895.67,2083.71Z" style="fill:rgb(102,102,102);"/>

</g>

<g transform="matrix(0.626408,0.626408,-0.626408,0.626408,-4182.64,-6838.55)">

<path d="M8895.67,2083.71L8895.67,2079.2L8885.93,2079.2C8884.68,2079.2 8883.67,2080.21 8883.67,2081.45C8883.67,2082.7 8884.68,2083.71 8885.93,2083.71L8895.67,2083.71Z" style="fill:rgb(102,102,102);"/>

</g>

<g transform="matrix(0.626408,0.626408,-0.626408,0.626408,-4197.18,-6824.01)">

<path d="M8895.67,2083.71L8895.67,2079.2L8885.93,2079.2C8884.68,2079.2 8883.67,2080.21 8883.67,2081.45C8883.67,2082.7 8884.68,2083.71 8885.93,2083.71L8895.67,2083.71Z" style="fill:rgb(102,102,102);"/>

</g>

<g transform="matrix(0.626408,0.626408,-0.626408,0.626408,-4211.73,-6809.47)">

<path d="M8895.67,2083.71L8895.67,2079.2L8885.93,2079.2C8884.68,2079.2 8883.67,2080.21 8883.67,2081.45C8883.67,2082.7 8884.68,2083.71 8885.93,2083.71L8895.67,2083.71Z" style="fill:rgb(102,102,102);"/>

</g>

<g transform="matrix(0.313204,0.313204,-0.626408,0.626408,-1389.21,-4059.66)">

<path d="M8895.67,2083.71L8895.67,2079.2L8885.93,2079.2C8883.44,2079.2 8881.41,2080.21 8881.41,2081.45C8881.41,2082.7 8883.44,2083.71 8885.93,2083.71L8895.67,2083.71Z" style="fill:rgb(102,102,102);"/>

</g>

<g transform="matrix(0.313204,0.313204,-0.626408,0.626408,-1403.75,-4045.12)">

<path d="M8895.67,2083.71L8895.67,2079.2L8885.93,2079.2C8883.44,2079.2 8881.41,2080.21 8881.41,2081.45C8881.41,2082.7 8883.44,2083.71 8885.93,2083.71L8895.67,2083.71Z" style="fill:rgb(102,102,102);"/>

</g>

<g transform="matrix(0.313204,0.313204,-0.626408,0.626408,-1418.3,-4030.58)">

<path d="M8895.67,2083.71L8895.67,2079.2L8885.93,2079.2C8883.44,2079.2 8881.41,2080.21 8881.41,2081.45C8881.41,2082.7 8883.44,2083.71 8885.93,2083.71L8895.67,2083.71Z" style="fill:rgb(102,102,102);"/>

</g>

<g transform="matrix(0.313204,0.313204,-0.626408,0.626408,-1432.84,-4016.04)">

<path d="M8895.27,2083.71L8895.67,2083.43L8895.67,2079.2L8885.93,2079.2C8883.44,2079.2 8881.41,2080.21 8881.41,2081.45C8881.41,2082.7 8883.44,2083.71 8885.93,2083.71L8895.27,2083.71Z" style="fill:rgb(102,102,102);"/>

</g>

</g>

<g transform="matrix(0.856926,0.856926,-0.559089,0.559089,-6378.9,-8769.65)">

<path d="M8952.34,2170.92C8952.34,2168.61 8951.74,2166.38 8950.67,2164.74C8949.6,2163.1 8948.15,2162.18 8946.64,2162.18C8935.27,2162.18 8910.91,2162.18 8910.91,2162.18L8896.68,2193.35L8946.64,2193.35C8949.79,2193.35 8952.34,2189.43 8952.34,2184.61C8952.34,2180.33 8952.34,2175.2 8952.34,2170.92Z" style="fill:rgb(51,51,51);"/>

</g>

<g>

<g transform="matrix(1,0,0,1,-5872.2,-3130.42)">

<path d="M5895.39,3210.04L5890.81,3210.85C5890.81,3210.85 5921.46,3241.5 5933.62,3253.66C5936.33,3256.36 5940.7,3256.36 5943.4,3253.66C5945.8,3251.27 5948.66,3248.4 5951.05,3246.01C5952.35,3244.72 5953.08,3242.96 5953.08,3241.12C5953.08,3239.75 5952.67,3238.42 5951.93,3237.3C5951.58,3238.26 5951.03,3239.14 5950.3,3239.87C5947.91,3242.26 5945.04,3245.13 5942.65,3247.52C5939.95,3250.22 5935.57,3250.22 5932.87,3247.52L5895.39,3210.04Z" style="fill:rgb(38,38,38);"/>

</g>

<g transform="matrix(1,0,0,1,-5872.2,-3130.42)">

<path d="M5926.21,3211.39L5920.44,3205.62L5890.81,3210.85L5926.21,3211.39Z" style="fill:rgb(38,38,38);"/>

</g>

</g>

<g transform="matrix(0.658365,0.658365,-0.266432,0.266432,-5243.52,-6359.59)">

<path d="M8952.34,2170.39C8952.34,2168.22 8951.99,2166.12 8951.37,2164.58C8950.74,2163.04 8949.9,2162.18 8949.02,2162.18C8939.18,2162.18 8910.91,2162.18 8910.91,2162.18L8910.91,2193.35C8910.91,2193.35 8939.18,2193.35 8949.02,2193.35C8949.9,2193.35 8950.74,2192.49 8951.37,2190.95C8951.99,2189.4 8952.34,2187.31 8952.34,2185.14C8952.34,2180.58 8952.34,2174.94 8952.34,2170.39Z" style="fill:rgb(244,187,49);"/>

</g>

<g transform="matrix(1,0,0,1,-5872.2,-3130.42)">

<path d="M5914.18,3218.6L5910.93,3221.84C5910.93,3221.84 5929.54,3240.45 5936.02,3246.93C5936.6,3247.51 5937.39,3247.84 5938.21,3247.84C5939.03,3247.84 5939.82,3247.51 5940.4,3246.93C5941.61,3245.72 5943.11,3244.22 5944.32,3243C5944.9,3242.42 5945.23,3241.63 5945.23,3240.81C5945.23,3239.99 5944.9,3239.2 5944.32,3238.62L5942.78,3237.08L5939.91,3239.95C5939.33,3240.53 5938.54,3240.86 5937.72,3240.86C5936.9,3240.86 5936.11,3240.53 5935.53,3239.95L5914.18,3218.6Z" style="fill:rgb(183,140,37);"/>

</g>

</g>

</g>

</g></symbol>

<symbol id="pliers" viewBox="0 -0.5 129 129">
<g xmlns="http://www.w3.org/2000/svg" transform="matrix(1,0,0,1,-630,0)">

<g id="pliers-tools-" transform="matrix(1,0,0,1,630.835,0)">

<rect height="128" style="fill:none;" width="128" x="0" y="0"/>

<g transform="matrix(1,0,0,1,0.0980764,-0.0980764)">

<g transform="matrix(1,0,0,1,-2818.85,-2621.67)">

<path d="M2916.72,2651.8L2909.76,2658.76L2909.76,2677.42C2909.76,2694.53 2902.96,2710.94 2890.87,2723.03C2883.08,2730.82 2874.66,2739.24 2869.43,2744.47C2866.57,2747.33 2861.94,2747.33 2859.08,2744.47C2859.08,2744.47 2859.08,2744.47 2859.08,2744.47C2856.22,2741.61 2856.22,2736.98 2859.08,2734.12C2865.26,2727.94 2875.6,2717.6 2882.38,2710.82C2886.72,2706.48 2889.55,2700.87 2890.47,2694.8C2892.81,2679.36 2897.22,2650.2 2897.22,2650.2C2897.22,2650.2 2906.63,2642.48 2911.66,2639.06C2917.87,2634.85 2916.47,2635.35 2934.44,2624.93L2939.02,2629.5L2929.91,2638.61L2929.74,2638.35C2927.85,2636.46 2923.34,2637.89 2919.68,2641.56C2916.01,2645.22 2914.58,2649.73 2916.47,2651.63L2916.72,2651.8Z" style="fill:rgb(244,118,50);"/>

</g>

<g transform="matrix(1,0,0,1,-2818.85,-2621.67)">

<path d="M2936.39,2626.88C2918.43,2637.3 2919.82,2636.8 2913.61,2641.01C2908.59,2644.43 2899.17,2652.16 2899.17,2652.16C2899.17,2652.16 2894.76,2681.31 2892.43,2696.75C2891.51,2702.82 2888.67,2708.43 2884.33,2712.77C2877.56,2719.55 2867.21,2729.9 2861.03,2736.07C2858.51,2738.6 2858.21,2742.51 2860.15,2745.36C2859.77,2745.1 2859.41,2744.8 2859.08,2744.47C2859.08,2744.47 2859.08,2744.47 2859.08,2744.47C2856.22,2741.61 2856.22,2736.98 2859.08,2734.12C2865.26,2727.94 2875.6,2717.6 2882.38,2710.82C2886.72,2706.48 2889.55,2700.87 2890.47,2694.8C2892.81,2679.36 2897.22,2650.2 2897.22,2650.2C2897.22,2650.2 2906.63,2642.48 2911.66,2639.06C2917.87,2634.85 2916.47,2635.35 2934.44,2624.93L2936.39,2626.88Z" style="fill:rgb(247,152,101);"/>

</g>

<g transform="matrix(1,0,0,1,-2818.85,-2621.67)">

<path d="M2934.44,2624.93L2939.02,2629.5L2929.91,2638.61L2929.74,2638.35C2927.85,2636.46 2923.34,2637.89 2919.68,2641.56C2916.01,2645.22 2914.58,2649.73 2916.47,2651.63L2916.72,2651.8L2909.76,2658.76L2909.76,2677.42C2909.76,2694.53 2902.96,2710.94 2890.87,2723.03C2883.08,2730.82 2874.66,2739.24 2869.43,2744.47C2866.57,2747.33 2861.94,2747.33 2859.08,2744.47C2859.08,2744.47 2859.08,2744.47 2859.08,2744.47C2858.66,2744.05 2858.3,2743.59 2858,2743.1C2860.82,2744.82 2864.54,2744.46 2866.98,2742.02C2872.22,2736.79 2880.63,2728.38 2888.42,2720.59C2900.51,2708.49 2907.31,2692.08 2907.31,2674.97L2907.31,2656.31L2914.28,2649.35L2914.02,2649.18C2912.13,2647.28 2913.56,2642.77 2917.23,2639.11C2920.89,2635.45 2925.4,2634.01 2927.3,2635.91L2927.47,2636.16L2936.57,2627.05L2934.44,2624.93Z" style="fill:rgb(183,88,37);"/>

</g>

<g transform="matrix(1,0,0,1,-2818.85,-2621.67)">

<path d="M2916.72,2651.8L2909.76,2658.76L2909.76,2677.42C2909.76,2680.93 2909.47,2684.41 2908.91,2687.83L2891.72,2686.59C2894.1,2670.84 2897.22,2650.2 2897.22,2650.2C2897.22,2650.2 2906.63,2642.48 2911.66,2639.06C2917.87,2634.85 2916.47,2635.35 2934.44,2624.93L2939.02,2629.5L2929.91,2638.61L2929.74,2638.35C2927.85,2636.46 2923.34,2637.89 2919.68,2641.56C2916.01,2645.22 2914.58,2649.73 2916.47,2651.63L2916.72,2651.8Z" style="fill:rgb(158,158,158);"/>

</g>

<g transform="matrix(1,0,0,1,-2818.85,-2621.67)">

<path d="M2935.47,2625.95C2918.76,2635.65 2919.95,2635.27 2913.89,2639.39C2908.86,2642.8 2899.45,2650.53 2899.45,2650.53L2893.97,2686.75L2891.72,2686.59C2894.1,2670.84 2897.22,2650.2 2897.22,2650.2C2897.22,2650.2 2906.63,2642.48 2911.66,2639.06C2917.87,2634.85 2916.47,2635.35 2934.44,2624.93L2935.47,2625.95ZM2929.09,2637.88C2929.62,2637.82 2930.13,2637.84 2930.58,2637.94L2929.91,2638.61L2929.74,2638.35C2929.55,2638.16 2929.33,2638 2929.09,2637.88Z" style="fill:rgb(182,182,182);"/>

</g>

<g transform="matrix(1,0,0,1,-2818.85,-2621.67)">

<path d="M2935.59,2626.08C2918.65,2636.53 2919.72,2636.18 2913.23,2640.78C2907.71,2644.68 2897.31,2653.39 2897.31,2653.39L2895.1,2664.21L2897.22,2650.2C2897.22,2650.2 2906.63,2642.48 2911.66,2639.06C2917.87,2634.85 2916.47,2635.35 2934.44,2624.93L2935.59,2626.08ZM2930.29,2638.23L2929.91,2638.61L2929.74,2638.35C2929.71,2638.32 2929.68,2638.29 2929.65,2638.26C2929.87,2638.24 2930.09,2638.23 2930.29,2638.23Z" style="fill:rgb(182,182,182);"/>

</g>

<g transform="matrix(1,0,0,1,-2818.85,-2621.67)">

<path d="M2905.97,2687.62C2906.51,2684.27 2906.78,2680.86 2906.78,2677.42L2906.78,2658.76L2913.75,2651.8L2913.49,2651.63C2911.6,2649.73 2913.03,2645.22 2916.7,2641.56C2919.84,2638.41 2923.61,2636.91 2925.81,2637.74C2923.88,2638.25 2921.65,2639.58 2919.68,2641.56C2916.01,2645.22 2914.58,2649.73 2916.47,2651.63L2916.72,2651.8L2909.76,2658.76L2909.76,2677.42C2909.76,2680.93 2909.47,2684.41 2908.91,2687.83L2905.97,2687.62ZM2936.04,2629.5L2937.61,2628.1L2939.02,2629.5L2929.91,2638.61L2929.74,2638.35C2929.29,2637.9 2928.69,2637.64 2927.99,2637.55L2936.04,2629.5Z" style="fill:rgb(118,118,118);"/>

</g>

<g transform="matrix(1,0,0,1,-2818.85,-2621.67)">

<path d="M2929.91,2638.61L2939.02,2629.5L2943.6,2634.08C2943.6,2634.08 2933.67,2650.66 2929.46,2656.86C2926.05,2661.89 2924.75,2664.45 2918.32,2671.3C2918.32,2671.3 2889.16,2675.71 2873.72,2678.05C2867.65,2678.97 2862.04,2681.8 2857.7,2686.14C2850.92,2692.92 2840.58,2703.26 2834.4,2709.44C2831.54,2712.3 2826.91,2712.3 2824.05,2709.44C2824.05,2709.44 2824.05,2709.44 2824.05,2709.44C2821.19,2706.58 2821.19,2701.95 2824.05,2699.09C2829.28,2693.86 2837.69,2685.45 2845.48,2677.66C2857.58,2665.56 2874,2658.76 2891.11,2658.76L2909.76,2658.76L2916.72,2651.8C2918.71,2653.41 2923.02,2651.95 2926.54,2648.42C2930.06,2644.9 2931.53,2640.59 2929.91,2638.61Z" style="fill:rgb(244,118,50);"/>

</g>

<g transform="matrix(1,0,0,1,-2818.85,-2621.67)">

<path d="M2930.41,2642.04C2931.08,2644.25 2929.58,2647.88 2926.54,2650.91C2923.02,2654.44 2918.71,2655.9 2916.72,2654.29L2909.76,2661.25L2891.11,2661.25C2874,2661.25 2857.58,2668.05 2845.48,2680.16C2837.69,2687.94 2829.28,2696.35 2824.05,2701.58C2822.94,2702.69 2822.26,2704.07 2822.01,2705.51C2821.62,2703.25 2822.3,2700.84 2824.05,2699.09C2829.28,2693.86 2837.69,2685.45 2845.48,2677.66C2857.58,2665.56 2874,2658.76 2891.11,2658.76L2909.76,2658.76L2916.72,2651.8C2918.71,2653.41 2923.02,2651.95 2926.54,2648.42C2928.61,2646.36 2929.96,2644.02 2930.41,2642.04ZM2930.56,2640.45C2930.52,2639.73 2930.31,2639.1 2929.91,2638.61L2939.02,2629.5L2943.6,2634.08C2943.6,2634.08 2943.25,2634.66 2942.66,2635.64L2939.02,2631.99L2930.56,2640.45Z" style="fill:rgb(247,152,101);"/>

</g>

<g transform="matrix(1,0,0,1,-2818.85,-2621.67)">

<path d="M2943.6,2634.08C2943.6,2634.08 2933.67,2650.66 2929.46,2656.86C2926.05,2661.89 2924.75,2664.45 2918.32,2671.3C2918.32,2671.3 2889.16,2675.71 2873.72,2678.05C2867.65,2678.97 2862.04,2681.8 2857.7,2686.14C2850.92,2692.92 2840.58,2703.26 2834.4,2709.44C2831.54,2712.3 2826.91,2712.3 2824.05,2709.44C2824.05,2709.44 2824.05,2709.44 2824.05,2709.44C2823.64,2709.03 2823.28,2708.58 2822.99,2708.11C2825.81,2709.85 2829.56,2709.49 2832.01,2707.05C2838.18,2700.87 2848.53,2690.52 2855.31,2683.74C2859.64,2679.41 2865.26,2676.57 2871.33,2675.65C2886.76,2673.32 2915.92,2668.91 2915.92,2668.91C2922.35,2662.06 2923.65,2659.49 2927.07,2654.46C2931.28,2648.26 2941.2,2631.69 2941.2,2631.69L2943.6,2634.08Z" style="fill:rgb(183,88,37);"/>

</g>

<g transform="matrix(1,0,0,1,-2818.85,-2621.67)">

<path d="M2929.91,2638.61L2939.02,2629.5L2943.6,2634.08C2943.6,2634.08 2933.67,2650.66 2929.46,2656.86C2926.05,2661.89 2924.75,2664.45 2918.32,2671.3L2881.33,2676.9L2880.09,2659.71C2883.7,2659.08 2887.39,2658.76 2891.11,2658.76L2909.76,2658.76L2916.72,2651.8C2918.71,2653.41 2923.02,2651.95 2926.54,2648.42C2930.06,2644.9 2931.53,2640.59 2929.91,2638.61Z" style="fill:rgb(158,158,158);"/>

</g>

<g transform="matrix(1,0,0,1,-2818.85,-2621.67)">

<path d="M2940.3,2630.78L2931.56,2639.52C2933.19,2641.55 2931.59,2646.05 2927.87,2649.77C2924.14,2653.5 2919.64,2655.1 2917.61,2653.47L2910.24,2660.84C2910.24,2660.84 2901.11,2661.01 2890.89,2661.2C2887.31,2661.27 2883.76,2661.62 2880.27,2662.24L2880.09,2659.71C2883.7,2659.08 2887.39,2658.76 2891.11,2658.76L2909.76,2658.76L2916.72,2651.8C2918.71,2653.41 2923.02,2651.95 2926.54,2648.42C2930.06,2644.9 2931.53,2640.59 2929.91,2638.61L2939.02,2629.5L2940.3,2630.78Z" style="fill:rgb(182,182,182);"/>

</g>

<g transform="matrix(1,0,0,1,-2818.85,-2621.67)">

<path d="M2942.36,2632.84L2943.6,2634.08C2943.6,2634.08 2933.67,2650.66 2929.46,2656.86C2926.05,2661.89 2924.75,2664.45 2918.32,2671.3L2881.33,2676.9L2881.13,2674.14L2917.98,2668.57C2924.41,2661.72 2925.71,2659.16 2929.12,2654.12C2932.57,2649.06 2939.82,2637.06 2942.36,2632.84Z" style="fill:rgb(118,118,118);"/>

</g>

<g transform="matrix(1,0,0,1,-2818.85,-2621.67)">

<circle cx="2902.43" cy="2666.03" r="2.628" style="fill:rgb(118,118,118);"/>

</g>

</g>

</g>

</g></symbol>

<symbol id="hammer" viewBox="0 -0.5 129 129">
<g xmlns="http://www.w3.org/2000/svg" transform="matrix(1,0,0,1,-157,0)">

<g id="hammer-tools" transform="matrix(1,0,0,1,157.709,0)">

<rect height="128" style="fill:none;" width="128" x="0" y="0"/>

<g>

<g transform="matrix(0.984248,0,0,0.984248,-182.589,-253.051)">

<path d="M279.166,302.137L253.908,327.395L253.311,326.663C251.306,324.658 248.92,322.273 246.924,320.277C246.547,319.9 246.133,319.583 245.68,319.349L273.266,291.763L279.166,302.137Z" style="fill:rgb(51,51,51);"/>

</g>

<g transform="matrix(0.984248,0,0,0.984248,-182.589,-253.051)">

<path d="M279.166,302.137L276.133,305.17L275.535,304.438C273.531,302.433 271.145,300.048 269.149,298.052C268.772,297.675 268.358,297.358 267.905,297.124L273.266,291.763L279.166,302.137Z" style="fill:rgb(38,38,38);"/>

</g>

<g transform="matrix(1,0,0,1,-2345.72,-2621.67)">

<path d="M2407.87,2685.55L2413.11,2690.79L2413.04,2690.86L2412.45,2690.14C2412.45,2690.14 2407.87,2685.55 2407.87,2685.55ZM2433.33,2657.95L2406.8,2684.48L2406.17,2683.85C2405.8,2683.48 2405.39,2683.17 2404.94,2682.94L2432.1,2655.79L2433.33,2657.95Z" style="fill:rgb(102,102,102);"/>

</g>

<g transform="matrix(1,0,0,1,-2345.72,-2621.67)">

<path d="M2436.5,2662.67L2437.9,2666L2413.04,2690.86L2412.45,2690.14C2410.48,2688.16 2408.13,2685.82 2406.17,2683.85C2405.8,2683.48 2405.39,2683.17 2404.94,2682.94L2407.47,2680.42L2412.45,2685.4L2413.04,2686.12L2436.5,2662.67Z" style="fill:rgb(38,38,38);"/>

</g>

<g transform="matrix(0.984248,0,0,0.984248,-182.589,-253.051)">

<path d="M253.915,267.504C253.488,267.316 253.251,266.854 253.352,266.398C253.452,265.942 253.861,265.62 254.327,265.63C261.438,266.033 273.507,268.225 282.811,277.726C296.104,291.303 295.412,292.86 295.412,292.86C295.412,292.86 307.452,298.502 311.924,303.219C312.508,304.01 312.423,305.109 311.726,305.801C308.681,308.853 300.864,316.617 297.586,319.873C297.187,320.269 296.64,320.479 296.079,320.452C295.517,320.425 294.993,320.163 294.635,319.73C292.356,317.036 288.107,311.623 287.741,307.871C287.392,304.285 278.366,303.021 278.366,303.021L270.484,295.022C270.484,295.022 277.056,277.726 253.915,267.504Z" style="fill:rgb(158,158,158);"/>

</g>

<g transform="matrix(1,0,0,1,-2345.72,-2621.67)">

<path d="M2420.43,2636.06C2418.4,2634.6 2415.96,2633.2 2413.05,2631.91C2412.63,2631.73 2412.4,2631.27 2412.49,2630.82C2412.59,2630.37 2412.99,2630.06 2413.45,2630.07C2420.45,2630.46 2432.33,2632.62 2441.49,2641.97C2454.57,2655.34 2453.89,2656.87 2453.89,2656.87C2453.89,2656.87 2465.74,2662.42 2470.14,2667.06C2470.72,2667.84 2470.64,2668.92 2469.95,2669.61C2469.6,2669.96 2469.18,2670.37 2468.72,2670.84C2463.61,2666.53 2453.89,2661.98 2453.89,2661.98C2453.89,2661.98 2454.57,2660.44 2441.49,2647.08C2434.93,2640.39 2426.99,2637.38 2420.43,2636.06Z" style="fill:rgb(182,182,182);"/>

</g>

<g transform="matrix(1,0,0,1,-2345.72,-2621.67)">

<path d="M2430.18,2654.44L2437.12,2661.48C2437.12,2661.48 2446,2662.72 2446.34,2666.26C2446.7,2669.95 2450.89,2675.28 2453.13,2677.93C2453.48,2678.35 2454,2678.61 2454.55,2678.64C2455.1,2678.66 2455.64,2678.46 2456.03,2678.07C2458.84,2675.28 2465.03,2669.13 2468.56,2665.6C2469.16,2666.1 2469.69,2666.59 2470.14,2667.06C2470.72,2667.84 2470.64,2668.92 2469.95,2669.61C2466.95,2672.61 2459.26,2680.25 2456.03,2683.46C2455.64,2683.85 2455.1,2684.05 2454.55,2684.03C2454,2684 2453.48,2683.74 2453.13,2683.31C2450.89,2680.66 2446.7,2675.34 2446.34,2671.64C2446,2668.11 2437.12,2666.87 2437.12,2666.87L2429.36,2659C2429.36,2659 2430.04,2657.2 2430.18,2654.44ZM2430.02,2650.74C2429.22,2645 2425.51,2637.41 2413.05,2631.91C2412.63,2631.73 2412.4,2631.27 2412.49,2630.82C2412.59,2630.37 2412.99,2630.06 2413.45,2630.07C2415.58,2630.19 2418.15,2630.47 2420.95,2631.07C2430.28,2638.08 2430.62,2646.45 2430.02,2650.74Z" style="fill:rgb(118,118,118);"/>

</g>

<g transform="matrix(1,0,0,1,-2345.72,-2621.67)">

<path d="M2412.45,2698.49C2414.76,2696.18 2414.76,2692.45 2412.45,2690.14C2410.48,2688.16 2408.13,2685.82 2406.17,2683.85C2403.89,2681.57 2400.2,2681.54 2397.88,2683.79C2389.71,2691.7 2372.03,2708.83 2367.83,2712.9C2367.22,2713.49 2366.59,2714.04 2365.92,2714.56C2363.01,2716.84 2354.42,2723.56 2350.05,2726.98C2349.39,2727.5 2348.98,2728.28 2348.93,2729.12C2348.88,2729.96 2349.19,2730.78 2349.78,2731.38C2352.84,2734.44 2357.09,2738.69 2358.86,2740.45C2359.38,2740.98 2360.1,2741.28 2360.84,2741.28C2363.18,2741.28 2368.42,2741.28 2371.05,2741.28C2372.01,2741.28 2372.91,2740.78 2373.42,2739.96C2374.22,2738.69 2375.43,2736.76 2376.34,2735.32C2377.14,2734.04 2378.09,2732.86 2379.15,2731.79C2384.81,2726.14 2403.92,2707.02 2412.45,2698.49ZM2365.9,2724.89C2368.08,2724.89 2369.85,2726.66 2369.85,2728.85C2369.85,2731.03 2368.08,2732.8 2365.9,2732.8C2363.72,2732.8 2361.94,2731.03 2361.94,2728.85C2361.94,2726.66 2363.72,2724.89 2365.9,2724.89Z" style="fill:rgb(244,118,50);"/>

</g>

<g transform="matrix(1,0,0,1,-2345.72,-2621.67)">

<path d="M2350.05,2731.65L2350.05,2731.64C2354.42,2728.22 2363.01,2721.51 2365.92,2719.22C2366.59,2718.7 2367.22,2718.15 2367.83,2717.56C2372.03,2713.49 2389.71,2696.37 2397.88,2688.45C2400.2,2686.21 2403.89,2686.24 2406.17,2688.52C2408.13,2690.48 2410.48,2692.83 2412.45,2694.8C2413,2695.35 2413.42,2695.98 2413.71,2696.65C2414.63,2694.49 2414.21,2691.9 2412.45,2690.14C2410.48,2688.16 2408.13,2685.82 2406.17,2683.85C2403.89,2681.57 2400.2,2681.54 2397.88,2683.79C2389.71,2691.7 2372.03,2708.83 2367.83,2712.9C2367.22,2713.49 2366.59,2714.04 2365.92,2714.56C2363.01,2716.84 2354.42,2723.56 2350.05,2726.98C2349.39,2727.5 2348.98,2728.28 2348.93,2729.12C2348.88,2729.96 2349.19,2730.78 2349.78,2731.38L2350.05,2731.65Z" style="fill:rgb(247,152,101);"/>

</g>

<g transform="matrix(1,0,0,1,-2345.72,-2621.67)">

<path d="M2413.36,2691.31C2413.12,2691.72 2412.81,2692.12 2412.45,2692.47C2403.92,2701.01 2384.81,2720.12 2379.15,2725.78C2378.09,2726.84 2377.14,2728.03 2376.34,2729.31C2375.43,2730.75 2374.22,2732.68 2373.42,2733.95C2372.91,2734.76 2372.01,2735.26 2371.05,2735.26C2368.42,2735.26 2363.18,2735.26 2360.84,2735.26C2360.1,2735.26 2359.38,2734.97 2358.86,2734.44L2350.81,2726.39L2350.05,2726.98C2349.39,2727.5 2348.98,2728.28 2348.93,2729.12C2348.88,2729.96 2349.19,2730.78 2349.78,2731.38C2352.84,2734.44 2357.09,2738.69 2358.86,2740.45C2359.38,2740.98 2360.1,2741.28 2360.84,2741.28C2363.18,2741.28 2368.42,2741.28 2371.05,2741.28C2372.01,2741.28 2372.91,2740.78 2373.42,2739.96C2374.22,2738.69 2375.43,2736.76 2376.34,2735.32C2377.14,2734.04 2378.09,2732.86 2379.15,2731.79C2384.81,2726.14 2403.92,2707.02 2412.45,2698.49C2414.4,2696.54 2414.7,2693.57 2413.36,2691.31Z" style="fill:rgb(183,88,37);"/>

</g>

</g>

</g>

</g></symbol>

<symbol id="grinder" viewBox="0 0 129 129">
<g xmlns="http://www.w3.org/2000/svg" transform="matrix(1,0,0,1,-315,-678)">

<g id="grinder" transform="matrix(1,0,0,1,315.418,678.333)">

<rect height="128" style="fill:none;" width="128" x="0" y="0"/>

<g>

<g transform="matrix(0.827989,0.827989,-0.862002,0.862002,-12053.5,-12752.3)">

<path d="M15074.3,366.953L15067.3,366.953C15066.4,366.953 15065.6,367.688 15065.6,368.594C15065.6,369.499 15066.4,370.234 15067.3,370.234L15074.3,370.234C15075.2,370.234 15076,369.499 15076,368.594C15076,367.688 15075.2,366.953 15074.3,366.953Z" style="fill:rgb(51,51,51);"/>

</g>

<g transform="matrix(1,0,0,1,-6029.91,-3300)">

<path d="M6149.48,3348.11L6144.07,3342.7L6135.91,3350.86L6141.32,3356.27L6149.48,3348.11Z" style="fill:rgb(182,182,182);"/>

</g>

<g transform="matrix(1,0,0,1,-6029.91,-3300)">

<path d="M6146.72,3345.35L6144.07,3342.7L6135.91,3350.86L6138.56,3353.51L6146.72,3345.35Z" style="fill:rgb(136,136,136);"/>

</g>

<g transform="matrix(0.827989,0.827989,-0.862002,0.862002,-12053.8,-12752.6)">

<path d="M15074.6,351.436L15074.6,385.751" style="fill:none;"/>

</g>

<g transform="matrix(0.827989,0.827989,-0.862002,0.862002,-12053.8,-12752.6)">

<path d="M15072.9,351.436L15072.9,385.751C15072.9,386.657 15073.7,387.392 15074.6,387.392C15075.5,387.392 15076.3,386.657 15076.3,385.751L15076.3,351.436C15076.3,350.531 15075.5,349.796 15074.6,349.796C15073.7,349.796 15072.9,350.531 15072.9,351.436Z" style="fill:rgb(76,76,76);"/>

</g>

<g transform="matrix(0.827989,0.827989,-0.862002,0.862002,-12053.5,-12752.3)">

<path d="M15074.3,368.594L15067.3,368.594" style="fill:none;"/>

</g>

<g transform="matrix(1,0,0,1,-6029.91,-3300)">

<path d="M6046.69,3405.52L6031.62,3420.59C6030.84,3421.37 6030.84,3422.64 6031.62,3423.42C6032.4,3424.2 6033.67,3424.2 6034.45,3423.42L6049.52,3408.35C6050.3,3407.57 6050.3,3406.3 6049.52,3405.52C6048.74,3404.74 6047.48,3404.74 6046.69,3405.52Z" style="fill:rgb(38,38,38);"/>

</g>

<g transform="matrix(1,0,0,1,-6029.91,-3300)">

<path d="M6031.49,3423.28L6047.98,3406.8C6048.53,3406.25 6049.32,3406.09 6050.01,3406.31C6049.92,3406.02 6049.75,3405.75 6049.52,3405.52C6048.74,3404.74 6047.48,3404.74 6046.69,3405.52L6031.62,3420.59C6030.89,3421.33 6030.85,3422.49 6031.49,3423.28Z" style="fill:rgb(102,102,102);"/>

</g>

<g transform="matrix(1,0,0,1,-6029.91,-3300)">

<path d="M6119.46,3355.82L6099.22,3335.59C6099.22,3335.59 6058.51,3376.29 6043.48,3391.32C6042.02,3392.78 6041.2,3394.75 6041.2,3396.81C6041.2,3398.87 6042.02,3400.85 6043.48,3402.3C6046.35,3405.18 6049.86,3408.69 6052.74,3411.56C6054.19,3413.02 6056.17,3413.84 6058.23,3413.84C6060.29,3413.84 6062.26,3413.02 6063.72,3411.56C6078.75,3396.53 6119.46,3355.82 6119.46,3355.82Z" style="fill:rgb(37,183,54);"/>

</g>

<g transform="matrix(1,0,0,1,-6029.91,-3300)">

<path d="M6048.66,3407.48C6048.66,3407.48 6049.86,3408.69 6052.74,3411.56C6054.19,3413.02 6056.17,3413.84 6058.23,3413.84C6060.29,3413.84 6062.26,3413.02 6063.72,3411.56C6078.75,3396.53 6119.46,3355.82 6119.46,3355.82L6115.38,3351.75C6115.38,3351.75 6074.67,3392.45 6059.64,3407.48C6058.19,3408.94 6056.21,3409.76 6054.15,3409.76C6052.09,3409.76 6050.12,3408.94 6048.66,3407.48Z" style="fill:rgb(28,137,40);"/>

</g>

<g transform="matrix(1,0,0,1,-6029.91,-3300)">

<path d="M6103.9,3340.27L6099.22,3335.59C6099.22,3335.59 6058.51,3376.29 6043.48,3391.32C6042.02,3392.78 6041.2,3394.75 6041.2,3396.81C6041.2,3398.87 6042.02,3400.85 6043.48,3402.3L6048.16,3406.98C6046.71,3405.53 6045.89,3403.55 6045.89,3401.49C6045.89,3399.43 6046.71,3397.46 6048.16,3396.01C6063.19,3380.97 6103.9,3340.27 6103.9,3340.27Z" style="fill:rgb(92,201,104);"/>

</g>

<g transform="matrix(1,0,0,1,-6029.91,-3300)">

<path d="M6072.14,3403.14L6051.9,3382.9C6051.9,3382.9 6047.37,3387.43 6043.48,3391.32C6040.45,3394.35 6040.45,3399.27 6043.48,3402.3C6046.35,3405.18 6049.86,3408.69 6052.74,3411.56C6055.77,3414.59 6060.69,3414.59 6063.72,3411.56C6067.61,3407.67 6072.14,3403.14 6072.14,3403.14Z" style="fill:rgb(51,51,51);"/>

</g>

<g transform="matrix(1,0,0,1,-6029.91,-3300)">

<path d="M6056.74,3387.74L6051.9,3382.9C6051.9,3382.9 6047.37,3387.43 6043.48,3391.32C6040.45,3394.35 6040.45,3399.27 6043.48,3402.3L6048.32,3407.14C6045.29,3404.11 6045.29,3399.2 6048.32,3396.16C6052.21,3392.28 6056.74,3387.74 6056.74,3387.74Z" style="fill:rgb(102,102,102);"/>

</g>

<g transform="matrix(1,0,0,1,-6029.91,-3300)">

<path d="M6149.03,3326.24C6149.03,3326.24 6144.65,3321.86 6139.96,3317.17C6137,3314.21 6132.99,3312.55 6128.8,3312.55C6124.61,3312.55 6120.59,3314.21 6117.63,3317.17C6109.25,3325.55 6099.22,3335.59 6099.22,3335.59L6119.46,3355.82L6149.03,3326.24Z" style="fill:rgb(182,182,182);"/>

</g>

<g transform="matrix(1,0,0,1,-6029.91,-3300)">

<path d="M6104.36,3340.73L6118.17,3326.93C6121.13,3323.96 6125.15,3322.3 6129.33,3322.3C6133.52,3322.3 6137.54,3323.96 6140.5,3326.93L6144.43,3330.85L6149.03,3326.24C6149.03,3326.24 6144.65,3321.86 6139.96,3317.17C6137,3314.21 6132.99,3312.55 6128.8,3312.55C6124.61,3312.55 6120.59,3314.21 6117.63,3317.17C6109.25,3325.55 6099.22,3335.59 6099.22,3335.59L6104.36,3340.73Z" style="fill:rgb(200,200,200);"/>

</g>

<g transform="matrix(1,0,0,1,-6029.91,-3300)">

<path d="M6145.31,3322.52L6115.73,3352.1L6119.46,3355.82L6149.03,3326.24L6145.31,3322.52Z" style="fill:rgb(136,136,136);"/>

</g>

<g transform="matrix(0.827989,0.827989,-0.862002,0.862002,-12053.5,-12752.3)">

<path d="M15047,446.298L15047,450.278C15047,451.183 15047.8,451.918 15048.7,451.918C15049.7,451.918 15050.4,451.183 15050.4,450.278L15050.4,446.298C15050.4,445.393 15049.7,444.657 15048.7,444.657C15047.8,444.657 15047,445.393 15047,446.298Z" style="fill:rgb(38,38,38);"/>

</g>

<g transform="matrix(0.827989,0.827989,-0.862002,0.862002,-12048.3,-12747)">

<path d="M15047,446.298L15047,450.278C15047,451.183 15047.8,451.918 15048.7,451.918C15049.7,451.918 15050.4,451.183 15050.4,450.278L15050.4,446.298C15050.4,445.393 15049.7,444.657 15048.7,444.657C15047.8,444.657 15047,445.393 15047,446.298Z" style="fill:rgb(38,38,38);"/>

</g>

<g transform="matrix(0.827989,0.827989,-0.862002,0.862002,-12001.7,-12793.6)">

<path d="M15047,446.298L15047,450.278C15047,451.183 15047.8,451.918 15048.7,451.918C15049.7,451.918 15050.4,451.183 15050.4,450.278L15050.4,446.298C15050.4,445.393 15049.7,444.657 15048.7,444.657C15047.8,444.657 15047,445.393 15047,446.298Z" style="fill:rgb(21,103,30);"/>

</g>

<g transform="matrix(0.827989,0.827989,-0.862002,0.862002,-12006.4,-12798.3)">

<path d="M15047,446.298L15047,450.278C15047,451.183 15047.8,451.918 15048.7,451.918C15049.7,451.918 15050.4,451.183 15050.4,450.278L15050.4,446.298C15050.4,445.393 15049.7,444.657 15048.7,444.657C15047.8,444.657 15047,445.393 15047,446.298Z" style="fill:rgb(21,103,30);"/>

</g>

<g transform="matrix(0.827989,0.827989,-0.862002,0.862002,-12043,-12741.8)">

<path d="M15047,446.298L15047,450.278C15047,451.183 15047.8,451.918 15048.7,451.918C15049.7,451.918 15050.4,451.183 15050.4,450.278L15050.4,446.298C15050.4,445.393 15049.7,444.657 15048.7,444.657C15047.8,444.657 15047,445.393 15047,446.298Z" style="fill:rgb(38,38,38);"/>

</g>

</g>

</g>

</g></symbol>

<symbol id="drill" viewBox="0 0 129 129">
<g xmlns="http://www.w3.org/2000/svg" transform="matrix(1,0,0,1,-473,-339)">

<g id="drill" transform="matrix(1,0,0,1,473.126,339.167)">

<rect height="128" style="fill:none;" width="128" x="0" y="0"/>

<g>

<g transform="matrix(1,0,0,1,-6187.62,-2960.84)">

<path d="M6223.36,3026.6L6239.35,3026.6C6239.35,3020.46 6243.88,3016.92 6246.35,3014.45L6232.59,3014.45L6223.36,3026.6Z" style="fill:rgb(182,182,182);"/>

</g>

<g transform="matrix(1,0,0,1,-6187.62,-2960.84)">

<path d="M6227.08,3026.6L6232.59,3019.35L6241.78,3019.35C6243.25,3017.29 6245.07,3015.73 6246.35,3014.45L6232.59,3014.45L6223.36,3026.6L6227.08,3026.6Z" style="fill:rgb(136,136,136);"/>

</g>

<g transform="matrix(0.763562,0,-1.89168e-16,0.763562,-10652.7,-251.237)">

<path d="M13972.6,388.803L13955.4,474.266L14016.9,474.266C14016.9,474.266 14018,468.495 14019.2,462.388C14019.9,458.913 14019,455.308 14016.8,452.566C14014.6,449.824 14011.2,448.234 14007.7,448.234L14000.4,448.234L14012.4,388.803" style="fill:rgb(244,49,49);"/>

</g>

<g transform="matrix(1,0,0,1,-6187.62,-2960.84)">

<path d="M6225.06,3051.86L6231.01,3022.34L6218.95,3022.34L6215.28,3040.57C6214.72,3043.34 6215.44,3046.21 6217.23,3048.4C6219.02,3050.59 6221.69,3051.86 6224.52,3051.86C6224.87,3051.86 6225.06,3051.86 6225.06,3051.86Z" style="fill:rgb(102,102,102);"/>

</g>

<g transform="matrix(1,0,0,1,-6187.62,-2960.84)">

<path d="M6239.04,3057.68C6239.04,3057.68 6239.04,3057.68 6239.04,3057.68C6238.22,3061.77 6234.62,3064.71 6230.45,3064.71C6217.64,3064.71 6192.14,3064.71 6192.14,3064.71L6190.73,3071.73L6237.63,3071.73C6237.63,3071.73 6238.51,3067.33 6239.45,3062.66C6239.79,3060.98 6239.64,3059.25 6239.04,3057.68Z" style="fill:rgb(183,37,37);"/>

</g>

<g transform="matrix(1,0,0,1,-6187.62,-2960.84)">

<path d="M6196.93,3071.73L6210.07,3006.48L6203.87,3006.48L6190.73,3071.73L6196.93,3071.73Z" style="fill:rgb(247,101,101);"/>

</g>

<g transform="matrix(0.763562,0,-1.89168e-16,0.763562,-10652.7,-251.237)">

<path d="M14010.3,399.141L14012.4,388.803L13972.6,388.803L13968.5,409.579L13992.4,409.579L13994.5,399.141L14010.3,399.141Z" style="fill:rgb(183,37,37);"/>

</g>

<g transform="matrix(1,0,0,1,-6187.62,-2960.84)">

<path d="M6225.87,3013.03L6220.82,3013.03L6215.28,3040.57C6214.72,3043.34 6215.44,3046.21 6217.23,3048.4C6219.02,3050.59 6221.69,3051.86 6224.52,3051.86C6224.87,3051.86 6225.06,3051.86 6225.06,3051.86L6225.27,3050.82C6224.13,3050.24 6223.11,3049.42 6222.27,3048.4C6220.48,3046.21 6219.77,3043.34 6220.32,3040.57L6225.87,3013.03Z" style="fill:rgb(76,76,76);"/>

</g>

<g transform="matrix(0.387856,2.16445e-14,1.45945e-13,0.763562,-5138.48,-251.237)">

<path d="M13488.6,377.947L13570.4,377.947C13573.3,377.947 13575.6,376.773 13575.6,375.327C13575.6,373.882 13573.3,372.708 13570.4,372.708L13488.6,372.708C13485.7,372.708 13483.4,373.882 13483.4,375.327C13483.4,376.773 13485.7,377.947 13488.6,377.947Z" style="fill:rgb(200,200,200);"/>

</g>

<g transform="matrix(1,0,0,1,-6187.62,-2960.84)">

<path d="M6278.76,2996.28C6278.81,2997.34 6279.69,2998.19 6280.76,2998.19L6312.5,2998.19C6313.58,2998.19 6314.45,2997.34 6314.5,2996.28L6278.76,2996.28Z" style="fill:rgb(136,136,136);"/>

</g>

<g transform="matrix(1,0,0,1,-6187.62,-2960.84)">

<path d="M6265.35,3006.32C6265.35,3006.32 6271.89,3006.32 6274.8,3006.32C6278.09,3006.32 6280.76,3003.65 6280.76,3000.36C6280.76,2997.73 6280.76,2994.64 6280.76,2992.01C6280.76,2988.72 6278.09,2986.05 6274.8,2986.05L6265.35,2986.05L6265.35,3006.32Z" style="fill:rgb(182,182,182);"/>

</g>

<g transform="matrix(1,0,0,1,-6187.62,-2960.84)">

<path d="M6265.35,3000.91L6265.35,3006.32C6265.35,3006.32 6271.89,3006.32 6274.8,3006.32C6278.09,3006.32 6280.76,3003.65 6280.76,3000.36L6280.76,2994.95C6280.76,2998.25 6278.09,3000.91 6274.8,3000.91L6265.35,3000.91Z" style="fill:rgb(136,136,136);"/>

</g>

<g transform="matrix(1,0,0,1,-6187.62,-2960.84)">

<path d="M6265.35,2990.63L6274.8,2990.63C6278.09,2990.63 6280.76,2993.3 6280.76,2996.59L6280.76,3000.36C6280.76,2997.73 6280.76,2994.64 6280.76,2992.01C6280.76,2988.72 6278.09,2986.05 6274.8,2986.05L6265.35,2986.05L6265.35,2990.63Z" style="fill:rgb(200,200,200);"/>

</g>

<g transform="matrix(0.763562,0,-1.89168e-16,0.763562,-10206.2,-251.237)">

<path d="M13383.8,351.436C13380.3,351.436 13377,352.816 13374.5,355.272C13372,357.727 13370.7,361.058 13370.7,364.531C13370.7,371.248 13370.7,379.407 13370.7,386.124C13370.7,389.597 13372,392.927 13374.5,395.383C13377,397.839 13380.3,399.218 13383.8,399.218C13404.1,399.218 13442.9,399.218 13462,399.218C13468.1,399.218 13473.2,394.207 13473.2,388.025C13473.2,380.376 13473.2,370.279 13473.2,362.629C13473.2,356.448 13468.1,351.436 13462,351.436L13383.8,351.436Z" style="fill:rgb(244,49,49);"/>

</g>

<g transform="matrix(1,0,0,1,-6187.62,-2960.84)">

<path d="M6190.73,2996.99L6190.73,3004.43C6190.73,3007.08 6191.78,3009.62 6193.66,3011.5C6195.53,3013.38 6198.08,3014.43 6200.73,3014.43L6260.45,3014.43C6265.17,3014.43 6269,3010.6 6269,3005.88L6269,2998.44C6269,3003.16 6265.17,3006.99 6260.45,3006.99L6200.73,3006.99C6198.08,3006.99 6195.53,3005.93 6193.66,3004.06C6191.78,3002.18 6190.73,2999.64 6190.73,2996.99Z" style="fill:rgb(183,37,37);"/>

</g>

<g transform="matrix(1,0,0,1,-6187.62,-2960.84)">

<path d="M6190.73,2995.05C6190.73,2992.39 6191.78,2989.85 6193.66,2987.98C6195.53,2986.1 6198.08,2985.05 6200.73,2985.05L6260.45,2985.05C6265.17,2985.05 6269,2988.87 6269,2993.59L6269,2986.49C6269,2981.77 6265.17,2977.94 6260.45,2977.94L6200.73,2977.94C6198.08,2977.94 6195.53,2979 6193.66,2980.87C6191.78,2982.75 6190.73,2985.29 6190.73,2987.94L6190.73,2995.05Z" style="fill:rgb(247,101,101);"/>

</g>

<g>

<g transform="matrix(0.0991853,0,-1.89168e-16,0.763562,-1272.83,-247.907)">

<path d="M13488.6,377.947L13570.4,377.947C13581.5,377.947 13590.6,376.773 13590.6,375.327C13590.6,373.882 13581.5,372.708 13570.4,372.708L13488.6,372.708C13477.4,372.708 13468.4,373.882 13468.4,375.327C13468.4,376.773 13477.4,377.947 13488.6,377.947Z" style="fill-opacity:0.25;"/>

</g>

<g transform="matrix(0.0991853,0,-1.89168e-16,0.763562,-1272.83,-240.776)">

<path d="M13488.6,377.947L13570.4,377.947C13581.5,377.947 13590.6,376.773 13590.6,375.327C13590.6,373.882 13581.5,372.708 13570.4,372.708L13488.6,372.708C13477.4,372.708 13468.4,373.882 13468.4,375.327C13468.4,376.773 13477.4,377.947 13488.6,377.947Z" style="fill-opacity:0.25;"/>

</g>

<g transform="matrix(0.0991853,0,-1.89168e-16,0.763562,-1272.83,-262.168)">

<path d="M13488.6,377.947L13570.4,377.947C13581.5,377.947 13590.6,376.773 13590.6,375.327C13590.6,373.882 13581.5,372.708 13570.4,372.708L13488.6,372.708C13477.4,372.708 13468.4,373.882 13468.4,375.327C13468.4,376.773 13477.4,377.947 13488.6,377.947Z" style="fill-opacity:0.25;"/>

</g>

<g transform="matrix(0.0991853,0,-1.89168e-16,0.763562,-1272.83,-255.037)">

<path d="M13488.6,377.947L13570.4,377.947C13581.5,377.947 13590.6,376.773 13590.6,375.327C13590.6,373.882 13581.5,372.708 13570.4,372.708L13488.6,372.708C13477.4,372.708 13468.4,373.882 13468.4,375.327C13468.4,376.773 13477.4,377.947 13488.6,377.947Z" style="fill-opacity:0.25;"/>

</g>

</g>

<g>

<g transform="matrix(0.44996,0,0,0.44996,-4803.64,-1278.04)">

<path d="M10776.5,2908.92C10776.5,2905.86 10774,2903.37 10771,2903.37C10760.7,2903.37 10738.9,2903.37 10728.7,2903.37C10725.6,2903.37 10723.1,2905.86 10723.1,2908.92C10723.1,2912.62 10723.1,2917.47 10723.1,2921.17C10723.1,2924.23 10725.6,2926.72 10728.7,2926.72C10738.9,2926.72 10760.7,2926.72 10771,2926.72C10774,2926.72 10776.5,2924.23 10776.5,2921.17C10776.5,2917.47 10776.5,2912.62 10776.5,2908.92Z" style="fill:rgb(242,175,13);"/>

</g>

<g transform="matrix(0.44996,0,0,0.44996,-4803.64,-1278.04)">

<path d="M10776.5,2915.24L10723.1,2915.24L10723.1,2921.17C10723.1,2924.23 10725.6,2926.72 10728.7,2926.72C10738.9,2926.72 10760.7,2926.72 10771,2926.72C10774,2926.72 10776.5,2924.23 10776.5,2921.17L10776.5,2915.24Z" style="fill:rgb(242,94,13);"/>

</g>

</g>

<g transform="matrix(0.763562,0,-1.89168e-16,0.763562,-10652.7,-251.237)">

<path d="M14008.2,409.579L13992.4,409.579L13994.5,399.141L14010.3,399.141L14008.2,409.579Z" style="fill:rgb(57,57,57);"/>

</g>

</g>

</g>

</g></symbol>


</defs>
</svg>